<?xml version="1.0" encoding="UTF-8"?>
<svg id="Layer_1" data-name="Layer 1" xmlns="http://www.w3.org/2000/svg" xmlns:xlink="http://www.w3.org/1999/xlink" viewBox="0 0 708.66 166.5">
  <defs>
    <style>
      .cls-1, .cls-2, .cls-3, .cls-4, .cls-5, .cls-6, .cls-7, .cls-8, .cls-9, .cls-10, .cls-11, .cls-12, .cls-13, .cls-14, .cls-15 {
        fill-rule: evenodd;
      }

      .cls-1, .cls-2, .cls-3, .cls-5, .cls-7, .cls-11, .cls-12, .cls-13, .cls-15 {
        opacity: .15;
      }

      .cls-1, .cls-16 {
        fill: #14130f;
      }

      .cls-17 {
        fill: #da1f26;
      }

      .cls-2, .cls-6 {
        fill: #ece44d;
      }

      .cls-18 {
        fill: #fff;
      }

      .cls-3 {
        fill: #1c192c;
      }

      .cls-4 {
        fill: url(#linear-gradient-3);
      }

      .cls-5 {
        fill: #374594;
      }

      .cls-6, .cls-8 {
        opacity: .3;
      }

      .cls-19 {
        fill: #f3b01c;
      }

      .cls-7 {
        fill: #b42025;
      }

      .cls-8, .cls-13 {
        fill: #deedf9;
      }

      .cls-9 {
        fill: url(#linear-gradient-2);
      }

      .cls-10 {
        fill: url(#linear-gradient-4);
      }

      .cls-11 {
        fill: none;
      }

      .cls-20 {
        fill: #039046;
      }

      .cls-12 {
        fill: #f9f4c0;
      }

      .cls-21 {
        fill: #f6f6f7;
      }

      .cls-14 {
        fill: url(#linear-gradient);
      }

      .cls-15 {
        fill: #106b37;
      }

      .cls-22 {
        fill: #186baf;
      }

      .cls-23 {
        fill: #2468ad;
      }
    </style>
    <linearGradient id="linear-gradient" x1="229.57" y1="149.67" x2="138.13" y2="69.51" gradientUnits="userSpaceOnUse">
      <stop offset=".08" stop-color="#2468ad"/>
      <stop offset=".22" stop-color="#216aa5"/>
      <stop offset=".42" stop-color="#1a7291"/>
      <stop offset=".68" stop-color="#10806f"/>
      <stop offset=".93" stop-color="#039047"/>
    </linearGradient>
    <linearGradient id="linear-gradient-2" x1="241.39" y1="198.81" x2="237.42" y2="-.35" gradientUnits="userSpaceOnUse">
      <stop offset=".13" stop-color="#2468ad"/>
      <stop offset=".3" stop-color="#286baf"/>
      <stop offset=".47" stop-color="#3475b6"/>
      <stop offset=".64" stop-color="#4987c2"/>
      <stop offset=".82" stop-color="#659ed2"/>
      <stop offset=".94" stop-color="#80b5e2"/>
    </linearGradient>
    <linearGradient id="linear-gradient-3" x1="79.1" y1="135.51" x2="25.9" y2="123.04" gradientUnits="userSpaceOnUse">
      <stop offset="0" stop-color="#f4b01b"/>
      <stop offset=".18" stop-color="#f3ac1b"/>
      <stop offset=".35" stop-color="#f1a11c"/>
      <stop offset=".51" stop-color="#ee8f1d"/>
      <stop offset=".66" stop-color="#e9751f"/>
      <stop offset=".81" stop-color="#e35421"/>
      <stop offset=".96" stop-color="#dc2b25"/>
      <stop offset="1" stop-color="#da1f26"/>
    </linearGradient>
    <linearGradient id="linear-gradient-4" x1="159.25" y1="56.48" x2="54.23" y2="200.87" gradientUnits="userSpaceOnUse">
      <stop offset=".07" stop-color="#039047"/>
      <stop offset=".69" stop-color="#f4b01b"/>
    </linearGradient>
  </defs>
  <g>
    <path class="cls-14" d="M190.31,70.42c-30.27-22.21-50.05,26.67-47.15,33.55,10.65,21.61,25.18,39.4,42.07,50.41,36.63,18.38,57.8-22.57,53.65-26.04-20.24-8.28-32.25-37.52-48.57-57.92Z"/>
    <path class="cls-3" d="M147.41,87.2c-3.65,7.47-5.22,14.47-4.26,16.78,10.65,21.61,25.17,39.4,42.07,50.41,29.47,14.79,48.93-8.83,53.25-20.43-1.81.1-3.63.15-5.46.15-35.56,0-66.94-18.59-85.61-46.9Z"/>
    <path class="cls-1" d="M222.78,116.3h0c-3.72,32.66-37.56,38.09-37.56,38.09,36.63,18.38,57.8-22.57,53.65-26.04-5.97-2.44-11.23-6.72-16.09-12.05Z"/>
    <path class="cls-9" d="M226.54,45.68c16.22,19.66,22.59,38.11,17.12,65.35-6.2,30.89-29.68,55.45-58.44,43.35,18.36,11.96,39.52,15.9,61.55,8.01,60.05-21.52,58.33-104.39,22.59-148.08-30.27-37.01-63.27,6.59-42.82,31.37Z"/>
    <path class="cls-5" d="M290.43,65.52c0,37.72-26,69.14-60.42,76.02-10.92,13.66-26.82,20.4-44.79,12.85,18.36,11.96,39.52,15.9,61.55,8.01,44.82-16.06,55.22-66.29,42.76-108.91.59,3.92.9,7.94.9,12.03Z"/>
    <path class="cls-4" d="M0,120.46c27.79-7.36,42.53,7.79,55.08,22.59,19.36,20.32,30.45-7.93,29-10.85C45.05,92.47,5.91,114.53,0,120.46Z"/>
    <path class="cls-7" d="M31.41,116.92c-5.15,0-10.16.59-14.98,1.7,17.68,1.07,28.84,12.86,38.64,24.44,13.42,14.09,22.87,4.83,26.92-3.14-12.57-14.14-30.58-22.99-50.58-22.99Z"/>
    <path class="cls-7" d="M30.71,116.92c-5.15,0-10.16.59-14.98,1.7,17.68,1.07,28.84,12.86,38.64,24.44,13.42,14.09,22.87,4.83,26.92-3.14-12.57-14.14-30.58-22.99-50.58-22.99Z"/>
    <path class="cls-12" d="M29.66,110.67c-6.45.54-12.98,2.17-19.07,4.89-1.21.54-2.7,1.26-4.21,2.1,7.41-1.1,14.65-.64,21.6,1.83,2.74-.63,5.5-1.06,8.26-1.29,17.22-1.44,32.62,4.84,45.73,15.53.18-.38.35-.75.5-1.11-14.51-14.5-32.38-23.66-52.82-21.95Z"/>
    <path class="cls-8" d="M220.99,21.4c-2.94,12.76,1.64,20.25,8.82,28.77,36.42,43.21,3.2,124.31-44.58,104.21,24.53,11.01,47.54-3.68,57.68-31.67,9.67-26.72,2.97-55.5-11.75-73.89-7.95-9.94-11.38-11.49-10.16-27.42Z"/>
    <path class="cls-13" d="M235.74,4.96c-6.19,3.38-10.52,9.9-12.18,16.87-.45,6.22-.11,13.35,3.6,18.52,2.2-3.7,5.24-6.86,8.96-8.89,12.02-6.57,23.87,1.6,31.64,11.1,12.4,15.16,20.66,35.4,23.41,56.05,3.22-28.81-6.04-60.86-23.78-82.55-7.77-9.5-19.62-17.67-31.64-11.1Z"/>
    <path class="cls-1" d="M143.16,103.98c3.73,7.56,7.93,14.65,12.54,21.15,2.83-61.59,34.62-54.71,34.62-54.71-30.27-22.21-50.05,26.67-47.15,33.56Z"/>
    <path class="cls-10" d="M141.22,49.65c-28.76,7.62-38.05,40.94-57.14,82.55,0,0-10.95,28.53-29,10.85,11.22,13.52,20.56,25.44,37.07,22.03,26.13-5.38,34.72-26.21,51.01-61.11,3.95-8.45,22.22-43.06,47.15-33.55-12.16-15.21-26.75-26.69-49.09-20.77Z"/>
    <path class="cls-11" d="M84.7,130.84l-.62,1.36s-10.95,28.53-29,10.85c11.22,13.52,20.56,25.44,37.07,22.03,26.13-5.38,34.71-26.21,51.01-61.11.29-.63.67-1.41,1.13-2.31-14.16,17.81-35.6,29.16-59.59,29.17Z"/>
    <path class="cls-15" d="M161.9,49.21c0,.49.02.99.02,1.48,0,12.77-2.88,24.84-8,35.56,8.51-11.06,21.22-21.61,36.4-15.83-7.94-9.93-16.92-18.27-28.41-21.22Z"/>
    <path class="cls-2" d="M141.47,51.08c-5.26,1.39-10.12,3.75-14.6,7.22-9.44,7.3-16.11,18.72-21.53,29.67-3.4,6.86-6.49,13.92-9.55,20.96-3.47,7.97-6.9,15.95-10.52,23.85-.56,1.45-1.33,2.98-2.07,4.33-1.63,2.99-3.64,5.9-6.01,8.24-4.92,4.85-9.96,5.88-14.78,4.25,1.43,1.64,2.9,3.24,4.42,4.76,2.33,2.33,4.84,4.51,7.6,6.22,2.3-.74,4.68-2.16,7.11-4.38,2.59-2.36,4.87-5.29,6.79-8.3.87-1.36,1.78-2.9,2.49-4.37,4.39-7.96,8.61-16.01,12.85-24.05,3.75-7.1,7.53-14.22,11.59-21.14,6.49-11.04,14.25-22.55,24.35-29.91,4.79-3.49,9.85-5.87,15.2-7.27,10.3-2.7,19.7-1.97,28.19,3.08-3.84-3.97-8.07-7.51-12.78-10.11-9.08-5.01-18.64-5.72-28.76-3.04Z"/>
    <path class="cls-1" d="M55.08,143.05c18.04,17.68,29-10.85,29-10.85-4.42-4.32-8.25-7.85-13.11-11.16,6.72,19.77-7.31,26.58-15.89,22.01Z"/>
    <path class="cls-6" d="M141.59,101.39c-12.27,25.24-21.73,57.95-50.89,63.96.48-.07.96-.16,1.45-.26,26.13-5.38,34.72-26.21,51.01-61.11,3.95-8.45,22.22-43.06,47.15-33.56-20.18-10.58-40.43,13.95-48.72,30.97Z"/>
  </g>
  <g>
    <path class="cls-22" d="M319.14,41.39c-.2-.62-.4-1.38-.4-2,0-2.96,2.39-5.17,5.25-5.17,2.39,0,4.32,1.58,4.98,3.79l9.23,29.56,9.3-29.28c.8-2.48,2.59-4.2,5.18-4.2h.8c2.59,0,4.38,1.65,5.18,4.2l9.3,29.28,9.23-29.56c.66-2.07,2.39-3.79,4.91-3.79,2.79,0,5.05,2.2,5.05,5.1,0,.62-.2,1.45-.4,2.07l-13.02,37.9c-.93,2.69-2.85,4.34-5.31,4.34h-1.06c-2.46,0-4.32-1.58-5.25-4.34l-9.16-27.63-9.16,27.63c-.93,2.76-2.79,4.34-5.25,4.34h-1.06c-2.46,0-4.38-1.65-5.31-4.34l-13.02-37.9Z"/>
    <path class="cls-22" d="M388.8,72.26v-.14c0-8.06,5.91-11.78,14.34-11.78,3.59,0,6.18.62,8.7,1.52v-.62c0-4.34-2.59-6.75-7.64-6.75-2.79,0-5.05.41-6.97,1.03-.6.21-1,.28-1.46.28-2.32,0-4.18-1.86-4.18-4.27,0-1.86,1.13-3.44,2.72-4.06,3.19-1.24,6.64-1.93,11.36-1.93,5.51,0,9.5,1.52,12.02,4.13,2.66,2.76,3.85,6.82,3.85,11.78v16.81c0,2.82-2.19,5.03-4.91,5.03-2.92,0-4.85-2.14-4.85-4.34v-.07c-2.46,2.82-5.84,4.69-10.76,4.69-6.71,0-12.22-4-12.22-11.3ZM411.98,69.85v-1.86c-1.73-.83-3.98-1.38-6.44-1.38-4.32,0-6.97,1.79-6.97,5.1v.14c0,2.83,2.26,4.48,5.51,4.48,4.71,0,7.9-2.69,7.9-6.48Z"/>
    <path class="cls-22" d="M430.24,50.76c0-2.89,2.26-5.24,5.05-5.24s5.05,2.34,5.05,5.24v.41c2.32-3.1,5.31-5.93,10.43-5.93,7.64,0,12.09,5.24,12.09,13.71v19.09c0,2.89-2.26,5.24-5.05,5.24s-5.05-2.34-5.05-5.24v-15.78c0-4.96-2.26-7.51-6.11-7.51s-6.31,2.55-6.31,7.51v15.78c0,2.89-2.26,5.24-5.05,5.24s-5.05-2.34-5.05-5.24v-27.28Z"/>
    <path class="cls-22" d="M469.48,72.26v-.14c0-8.06,5.91-11.78,14.34-11.78,3.59,0,6.18.62,8.7,1.52v-.62c0-4.34-2.59-6.75-7.64-6.75-2.79,0-5.05.41-6.97,1.03-.6.21-1,.28-1.46.28-2.32,0-4.18-1.86-4.18-4.27,0-1.86,1.13-3.44,2.72-4.06,3.19-1.24,6.64-1.93,11.36-1.93,5.51,0,9.5,1.52,12.02,4.13,2.66,2.76,3.85,6.82,3.85,11.78v16.81c0,2.82-2.19,5.03-4.91,5.03-2.92,0-4.85-2.14-4.85-4.34v-.07c-2.46,2.82-5.84,4.69-10.76,4.69-6.71,0-12.22-4-12.22-11.3ZM492.65,69.85v-1.86c-1.73-.83-3.98-1.38-6.44-1.38-4.32,0-6.97,1.79-6.97,5.1v.14c0,2.83,2.26,4.48,5.51,4.48,4.71,0,7.9-2.69,7.9-6.48Z"/>
    <path class="cls-22" d="M509.99,79.35c-1.06-.69-1.93-1.93-1.93-3.58,0-2.34,1.73-4.13,3.98-4.13.73,0,1.46.21,1.99.55,3.39,2.21,6.77,3.31,9.63,3.31s4.25-1.1,4.25-2.76v-.14c0-2.27-3.45-3.03-7.37-4.27-4.98-1.52-10.62-3.93-10.62-11.09v-.14c0-7.51,5.84-11.71,13.01-11.71,3.72,0,7.57,1.03,11.02,2.83,1.46.76,2.39,2.14,2.39,3.93,0,2.34-1.79,4.13-4.05,4.13-.73,0-1.2-.14-1.86-.48-2.86-1.45-5.58-2.34-7.7-2.34-2.46,0-3.72,1.1-3.72,2.55v.14c0,2.07,3.39,3.03,7.24,4.41,4.98,1.72,10.76,4.2,10.76,10.96v.14c0,8.2-5.91,11.92-13.61,11.92-4.38,0-9.1-1.31-13.41-4.2Z"/>
    <path class="cls-22" d="M543.72,80.53l19.85-44.65c.46-1.03,1.13-1.72,2.32-1.72h.13c1.2,0,1.86.69,2.32,1.72l19.79,44.51c.2.41.27.76.27,1.1,0,.9-.73,1.65-1.66,1.65-.8,0-1.39-.62-1.73-1.38l-5.45-12.4h-27.42l-5.45,12.47c-.33.83-.86,1.31-1.66,1.31-.86,0-1.59-.69-1.59-1.52,0-.28.07-.69.27-1.1ZM578.11,66.13l-12.22-27.9-12.28,27.9h24.5Z"/>
    <path class="cls-22" d="M598.37,49.18c0-1.03.66-1.72,1.59-1.72s1.66.69,1.66,1.72v6.41c2.92-4.62,7.24-8.68,13.94-8.68,8.17,0,16.47,6.82,16.47,18.26v.14c0,11.44-8.3,18.4-16.47,18.4-6.77,0-11.16-4-13.94-8.41v17.16c0,1.03-.66,1.72-1.59,1.72s-1.66-.69-1.66-1.72v-43.27ZM628.51,65.44v-.14c0-9.23-6.18-15.16-13.28-15.16s-13.81,6.13-13.81,15.09v.14c0,9.03,6.77,15.09,13.81,15.09s13.28-5.58,13.28-15.02Z"/>
    <path class="cls-22" d="M642.19,49.18c0-1.03.66-1.72,1.59-1.72s1.66.69,1.66,1.72v6.41c2.92-4.62,7.24-8.68,13.94-8.68,8.17,0,16.47,6.82,16.47,18.26v.14c0,11.44-8.3,18.4-16.47,18.4-6.77,0-11.16-4-13.94-8.41v17.16c0,1.03-.66,1.72-1.59,1.72s-1.66-.69-1.66-1.72v-43.27ZM672.34,65.44v-.14c0-9.23-6.18-15.16-13.28-15.16s-13.81,6.13-13.81,15.09v.14c0,9.03,6.77,15.09,13.81,15.09s13.28-5.58,13.28-15.02Z"/>
    <path class="cls-22" d="M683.83,79.01c-.27-.21-.6-.76-.6-1.31,0-.9.73-1.65,1.59-1.65.4,0,.8.14,1.06.34,3.52,2.62,7.24,4,11.29,4,4.58,0,8.17-2.62,8.17-6.68v-.14c0-4.13-4.25-5.65-8.96-7.03-5.51-1.65-11.62-3.38-11.62-9.65v-.14c0-5.65,4.58-9.72,11.16-9.72,3.65,0,7.7,1.24,10.96,3.17.4.28.86.76.86,1.52,0,.9-.73,1.65-1.59,1.65-.4,0-.73-.14-.93-.28-2.92-1.79-6.18-2.89-9.43-2.89-4.65,0-7.7,2.62-7.7,6.13v.14c0,3.93,4.58,5.37,9.43,6.82,5.45,1.58,11.16,3.65,11.16,9.85v.14c0,6.27-5.18,10.27-11.69,10.27-4.58,0-9.69-1.86-13.15-4.55Z"/>
  </g>
  <g>
    <path class="cls-21" d="M550.7,102.89c-3.74,0-6.78,3.16-6.78,7.04v30.11c0,3.88,3.04,7.04,6.78,7.04h91.79v-44.19h-91.79Z"/>
    <path class="cls-18" d="M701.41,147.55h-150.71c-4,0-7.25-3.37-7.25-7.52v-30.1c0-4.15,3.25-7.52,7.25-7.52h150.71c4,0,7.25,3.37,7.25,7.52v30.11c0,4.14-3.25,7.51-7.25,7.51M550.7,102.89c-3.74,0-6.78,3.16-6.78,7.04v30.11c0,3.88,3.04,7.04,6.78,7.04h150.71c3.74,0,6.78-3.16,6.78-7.04v-30.11c0-3.88-3.04-7.04-6.78-7.04h-150.71Z"/>
    <path class="cls-22" d="M701.41,147.08c3.74,0,6.78-3.16,6.78-7.04v-30.11c0-3.88-3.04-7.04-6.78-7.04h-58.91s0,44.19,0,44.19h58.91Z"/>
    <g>
      <path class="cls-23" d="M614.16,128.04l-1.67-12.81c-.95.04-1.71.84-1.71,1.83v3.76l.99,7.56c.07.48-.05.97-.35,1.35-.28.38-.7.64-1.16.71l-12.76,1.81c-.46.07-.93-.05-1.3-.36-.37-.29-.62-.73-.69-1.21l-.58-4.49-1.85,4.33.07.49c.16,1.15.72,2.16,1.6,2.87.74.58,1.62.88,2.52.88.19,0,.39-.02.56-.04l12.76-1.81c1.11-.16,2.08-.75,2.76-1.66.67-.93.97-2.07.81-3.22"/>
      <g>
        <path class="cls-20" d="M588.53,134.76c-.56,0-1.14-.13-1.69-.38l-11.76-5.44c-2.09-.97-3.04-3.54-2.11-5.72l5.25-12.2c.93-2.17,3.42-3.16,5.51-2.19l11.76,5.44c2.1.97,3.05,3.54,2.11,5.72l-5.25,12.2c-.69,1.61-2.22,2.58-3.82,2.58M587.82,132.09c.88.4,1.94,0,2.32-.93l5.25-12.2c.39-.91,0-2.01-.9-2.41l-11.76-5.44c-.88-.4-1.94,0-2.32.93l-5.25,12.2c-.39.91,0,2.01.9,2.41l11.76,5.44Z"/>
        <path class="cls-19" d="M625.43,134.76h-12.89c-2.31,0-4.17-1.94-4.17-4.33v-13.37c0-2.39,1.87-4.33,4.17-4.33h12.89c2.31,0,4.17,1.94,4.17,4.33v13.37c0,2.37-1.87,4.33-4.17,4.33M612.54,115.23c-.97,0-1.76.82-1.76,1.83v13.37c0,1,.79,1.83,1.76,1.83h12.89c.97,0,1.76-.82,1.76-1.83v-13.37c0-1.01-.79-1.83-1.76-1.83h-12.89Z"/>
        <path class="cls-17" d="M577.19,119.51l-1.72,4.04-.07.13.67,4.33c.16,1.01-.49,1.94-1.46,2.1l-12.71,2.14c-.46.07-.93-.04-1.32-.33s-.63-.71-.71-1.19l-2.06-13.19c-.07-.48.03-.97.32-1.37.28-.4.69-.66,1.15-.73l12.71-2.14c.09-.02.19-.02.28-.02.85,0,1.6.64,1.74,1.54l.69,4.37,1.8-4.18-.09-.58c-.37-2.36-2.52-3.96-4.79-3.58l-12.71,2.14c-1.11.18-2.06.81-2.71,1.74-.65.93-.92,2.08-.74,3.23l2.06,13.19c.18,1.15.77,2.14,1.67,2.81.72.53,1.57.82,2.43.82.23,0,.46-.02.67-.05l12.71-2.14c2.27-.38,3.82-2.61,3.45-4.97l-1.25-8.09Z"/>
        <path class="cls-23" d="M592.44,125.81l1.87-4.35-.53-4.04c-.07-.48.05-.97.35-1.35.28-.38.7-.64,1.16-.71l12.76-1.81c.09-.02.16-.02.25-.02.39,0,.76.13,1.06.37l.16.15c.56-.62,1.3-1.06,2.15-1.24-.23-.33-.51-.64-.85-.9-.88-.69-1.99-1.01-3.1-.84l-12.76,1.81c-1.11.17-2.08.75-2.76,1.66-.67.91-.97,2.06-.81,3.22l1.06,8.06Z"/>
        <path class="cls-16" d="M578.16,141.1l1.83-2.79h-1.5c-.09,0-.14-.07-.14-.15v-.38c0-.09.07-.15.14-.15h2.46c.09,0,.14.07.14.15v.15l-.02.09-1.78,2.8h1.6c.09,0,.14.07.14.15v.38c0,.09-.07.15-.14.15h-2.62c-.09,0-.14-.07-.14-.15v-.15l.02-.09"/>
        <path class="cls-16" d="M585.83,139.53c0-1.15.81-1.97,1.92-1.97s1.92.8,1.92,1.97-.79,1.99-1.92,1.99c-1.16.02-1.92-.8-1.92-1.99M588.77,139.54c0-.69-.32-1.3-1.06-1.3s-1.02.62-1.02,1.32c0,.66.35,1.28,1.06,1.28.74,0,1.02-.66,1.02-1.3"/>
        <path class="cls-16" d="M594.88,137.61h.55c.09,0,.14.07.14.15v1.43h1.55v-1.43c0-.09.07-.15.14-.15h.55c.09,0,.14.07.14.15v3.55c0,.09-.07.15-.14.15h-.55c-.09,0-.14-.07-.14-.15v-1.44h-1.55v1.44c0,.09-.07.15-.14.15h-.55c-.09,0-.14-.07-.14-.15v-3.55c-.02-.07.05-.15.14-.15"/>
        <path class="cls-16" d="M603.03,139.53c0-1.15.81-1.97,1.92-1.97s1.92.8,1.92,1.97-.79,1.99-1.92,1.99c-1.18.02-1.92-.8-1.92-1.99M605.97,139.54c0-.69-.32-1.3-1.06-1.3s-1.02.62-1.02,1.32c0,.66.35,1.28,1.06,1.28.74,0,1.02-.66,1.02-1.3"/>
      </g>
    </g>
    <g>
      <polygon class="cls-18" points="661.67 109.7 661.67 110.63 657.14 117.45 661.52 117.45 661.52 119.19 654.14 119.19 654.14 118.32 658.78 111.44 654.61 111.44 654.61 109.78 654.69 109.7 661.67 109.7"/>
      <path class="cls-18" d="M672.74,109.12v4.16l.55-.63c1.28-.92,3.33-.79,3.95.84.04.11.19.57.19.66v5.03h-1.95v-4.51c0-.21-.28-.63-.46-.76-.76-.52-2-.16-2.21.78-.02.08-.08.44-.08.5v3.98h-1.95v-10.07h1.95Z"/>
      <path class="cls-18" d="M689.29,124.99v.63s.37-.4.37-.4c.82-.67,2.36-.36,2.82.61.7-1.26,2.79-1.31,3.47,0,.05.1.24.58.24.65v3.93h-.9v-3.82s-.15-.4-.19-.45c-.39-.61-1.47-.62-1.97-.13-.21.21-.42.76-.42,1.05v3.35h-.9v-3.82s-.14-.37-.17-.41c-.37-.63-1.46-.67-1.97-.19-.11.11-.4.58-.4.71v3.72h-.95v-5.43h.95Z"/>
      <path class="cls-18" d="M671,124.99v.68s.32-.4.32-.4c.91-.73,2.36-.44,2.95.55.48-1.11,2.31-1.26,3.11-.45.22.22.58.91.58,1.21v3.82h-.9v-3.72c0-.06-.16-.46-.2-.54-.39-.66-1.57-.64-2.04-.07-.1.13-.34.63-.34.77v3.56h-.9v-3.72c0-.06-.16-.46-.2-.54-.39-.66-1.57-.64-2.04-.07-.1.13-.34.63-.34.77v3.56h-.9v-5.43h.9Z"/>
      <path class="cls-18" d="M678.43,140.74h-.9v-3.45c0-.19-.15-.68-.26-.84-.5-.72-1.86-.55-2.34.14-.06.09-.24.47-.24.55v3.61h-.9v-5.48h.9v.74c.75-1.05,2.59-1.11,3.34-.05.15.21.4.88.4,1.13v3.66Z"/>
      <path class="cls-18" d="M683.02,124.99v3.72c0,.07.17.44.22.52.42.63,1.56.64,2.1.17.2-.17.47-.64.47-.9v-3.5h.9v5.43h-.9v-.74c-.8,1.21-2.99,1.11-3.54-.28-.02-.06-.15-.46-.15-.48v-3.93h.9Z"/>
      <path class="cls-18" d="M671.26,133.89v1.37h1.19c.16.2.04.54.08.79h-1.26v3.56s.13.23.16.26c.24.22.87.15,1.16.03v.79c-.79.25-1.94.16-2.19-.79-.01-.05-.08-.37-.08-.4v-3.45h-.74v-.79h.74v-1l.95-.37Z"/>
      <path class="cls-18" d="M668.95,135.21v.84c-.54,0-1.17.11-1.49.6-.08.11-.25.52-.25.64v3.45h-.95v-5.4l.08-.08h.79l.08.08v.76l.47-.5c.35-.3.81-.43,1.27-.39Z"/>
      <path class="cls-18" d="M688.5,135.21v.84c-.54,0-1.17.11-1.49.6-.08.11-.25.52-.25.64v3.45h-.95v-5.4l.08-.08h.79l.08.08v.76l.47-.5c.35-.3.81-.43,1.27-.39Z"/>
      <path class="cls-18" d="M663.47,124.88v.84c-.61,0-1.3.16-1.6.74-.05.09-.19.52-.19.6v3.35h-.9v-5.43h.9v.84l.39-.48c.38-.33.89-.5,1.4-.47Z"/>
      <rect class="cls-18" x="679.59" y="124.99" width=".9" height="5.43"/>
      <path class="cls-18" d="M679.95,122.84c.81-.09.89,1.18.09,1.2s-.81-1.12-.09-1.2Z"/>
      <path class="cls-18" d="M665.77,112.09c-4.91.23-4.63,7.66.51,7.26,4.61-.36,4.35-7.48-.51-7.26ZM665.56,117.81c-1.73-.25-1.78-3.94.05-4.19,1.16-.16,1.85.6,1.96,1.71.14,1.42-.35,2.72-2.01,2.48Z"/>
      <path class="cls-18" d="M685.77,114.57c-.45-1.64-1.95-2.53-3.61-2.47-4.89.16-4.73,7.64.46,7.26,2.48-.18,3.8-2.46,3.15-4.78ZM681.9,117.81c-1.68-.26-1.79-3.95.11-4.19,1.1-.14,1.77.55,1.9,1.6.19,1.43-.31,2.85-2.01,2.59Z"/>
      <path class="cls-18" d="M658.28,133.52c-.15-.06-.6-.21-.74-.21h-2.87v7.43h.95v-3c1.38.04,3.77.09,3.95-1.77.11-1.1-.21-2.03-1.29-2.45ZM658.3,136.56c-.12.13-.61.39-.77.39h-1.92v-2.85h1.98c.24,0,.73.35.86.56.29.47.24,1.47-.15,1.89Z"/>
      <path class="cls-18" d="M658.82,123.49c-.3-.23-1.03-.51-1.39-.51h-2.77v7.43h.95v-3h1.61c.48,0,1.39-.3,1.76-.61.9-.77.77-2.6-.16-3.31ZM657.97,126.47c-.19.09-.65.2-.85.2h-1.5v-2.9h1.92c.07,0,.49.17.57.22.77.49.7,2.06-.14,2.48Z"/>
      <path class="cls-18" d="M668.89,127.89c.03-1.46-.55-2.9-2.18-3.01-4.01-.27-3.65,6.45.45,5.56.69-.15,1.41-.68,1.63-1.35l-.81-.32c-.9,1.68-3.26,1.02-3.14-.89h4.06ZM667.94,127.15h-3.11c.24-1.96,3.05-2.09,3.11,0Z"/>
      <path class="cls-18" d="M684.6,138.21v-.76c0-.16-.17-.69-.24-.87-.85-2.13-3.98-1.74-4.61.45-.6,2.1.76,4.18,3.07,3.75.72-.14,1.37-.66,1.7-1.3l-.84-.37c-.87,1.69-3.2.99-3.14-.89h4.06ZM683.7,137.48h-3.11c.2-1.98,3-2.09,3.11,0Z"/>
      <path class="cls-18" d="M664.51,136.3c-.72-1.66-3.53-1.38-4.1.28l.76.31c.36-.74,1.1-1.14,1.92-.86.63.22.7.91.69,1.49h-1.34c-.84,0-2.02.53-2.13,1.46-.21,1.77,1.85,2.28,3.1,1.47l.37-.34v.63h.9v-3.98c0-.05-.13-.39-.17-.47ZM663.78,139.03c0,.08-.24.5-.32.58-.44.47-1.78.77-2.15.09-.22-.41-.13-.92.25-1.2.23-.17.85-.35,1.13-.35h1.08v.87Z"/>
    </g>
  </g>
</svg>