<?xml version="1.0" encoding="UTF-8"?>
<svg id="Layer_1" data-name="Layer 1" xmlns="http://www.w3.org/2000/svg" viewBox="0 0 736.31 168.98">
  <defs>
    <style>
      .cls-1 {
        fill: #fff;
      }

      .cls-2 {
        fill: #f6f6f7;
      }
    </style>
  </defs>
  <g>
    <path class="cls-1" d="M332.14,43.03c-.21-.62-.41-1.38-.41-2,0-2.96,2.48-5.17,5.44-5.17,2.48,0,4.48,1.58,5.17,3.79l9.58,29.56,9.65-29.28c.83-2.48,2.69-4.2,5.37-4.2h.83c2.69,0,4.55,1.65,5.37,4.2l9.65,29.28,9.58-29.56c.69-2.07,2.48-3.79,5.1-3.79,2.89,0,5.24,2.2,5.24,5.1,0,.62-.21,1.45-.41,2.07l-13.5,37.9c-.96,2.69-2.96,4.34-5.51,4.34h-1.1c-2.55,0-4.48-1.58-5.44-4.34l-9.51-27.63-9.51,27.63c-.96,2.76-2.89,4.34-5.44,4.34h-1.1c-2.55,0-4.55-1.65-5.51-4.34l-13.5-37.9Z"/>
    <path class="cls-1" d="M404.41,73.9v-.14c0-8.06,6.13-11.78,14.88-11.78,3.72,0,6.41.62,9.03,1.52v-.62c0-4.34-2.69-6.75-7.92-6.75-2.89,0-5.24.41-7.23,1.03-.62.21-1.03.28-1.52.28-2.41,0-4.34-1.86-4.34-4.27,0-1.86,1.17-3.44,2.82-4.06,3.31-1.24,6.89-1.93,11.78-1.93,5.72,0,9.85,1.52,12.47,4.13,2.76,2.76,4,6.82,4,11.78v16.81c0,2.82-2.27,5.03-5.1,5.03-3.03,0-5.03-2.14-5.03-4.34v-.07c-2.55,2.82-6.06,4.69-11.16,4.69-6.96,0-12.68-4-12.68-11.3ZM428.46,71.49v-1.86c-1.79-.83-4.13-1.38-6.68-1.38-4.48,0-7.23,1.79-7.23,5.1v.14c0,2.83,2.34,4.48,5.72,4.48,4.89,0,8.2-2.69,8.2-6.48Z"/>
    <path class="cls-1" d="M447.41,52.4c0-2.89,2.34-5.24,5.24-5.24s5.24,2.34,5.24,5.24v.41c2.41-3.1,5.51-5.93,10.82-5.93,7.92,0,12.54,5.24,12.54,13.71v19.09c0,2.89-2.34,5.24-5.24,5.24s-5.24-2.34-5.24-5.24v-15.78c0-4.96-2.34-7.51-6.34-7.51s-6.55,2.55-6.55,7.51v15.78c0,2.89-2.34,5.24-5.24,5.24s-5.24-2.34-5.24-5.24v-27.28Z"/>
    <path class="cls-1" d="M488.13,73.9v-.14c0-8.06,6.13-11.78,14.88-11.78,3.72,0,6.41.62,9.03,1.52v-.62c0-4.34-2.69-6.75-7.92-6.75-2.89,0-5.24.41-7.23,1.03-.62.21-1.03.28-1.52.28-2.41,0-4.34-1.86-4.34-4.27,0-1.86,1.17-3.44,2.82-4.06,3.31-1.24,6.89-1.93,11.78-1.93,5.72,0,9.85,1.52,12.47,4.13,2.76,2.76,4,6.82,4,11.78v16.81c0,2.82-2.27,5.03-5.1,5.03-3.03,0-5.03-2.14-5.03-4.34v-.07c-2.55,2.82-6.06,4.69-11.16,4.69-6.96,0-12.68-4-12.68-11.3ZM512.17,71.49v-1.86c-1.79-.83-4.13-1.38-6.68-1.38-4.48,0-7.23,1.79-7.23,5.1v.14c0,2.83,2.34,4.48,5.72,4.48,4.89,0,8.2-2.69,8.2-6.48Z"/>
    <path class="cls-1" d="M530.16,81c-1.1-.69-2-1.93-2-3.58,0-2.34,1.79-4.13,4.13-4.13.76,0,1.52.21,2.07.55,3.51,2.21,7.03,3.31,9.99,3.31s4.41-1.1,4.41-2.76v-.14c0-2.27-3.58-3.03-7.65-4.27-5.17-1.52-11.02-3.93-11.02-11.09v-.14c0-7.51,6.06-11.71,13.5-11.71,3.86,0,7.85,1.03,11.44,2.83,1.52.76,2.48,2.14,2.48,3.93,0,2.34-1.86,4.13-4.2,4.13-.76,0-1.24-.14-1.93-.48-2.96-1.45-5.79-2.34-7.99-2.34-2.55,0-3.86,1.1-3.86,2.55v.14c0,2.07,3.51,3.03,7.51,4.41,5.17,1.72,11.16,4.2,11.16,10.96v.14c0,8.2-6.13,11.92-14.12,11.92-4.55,0-9.44-1.31-13.92-4.2Z"/>
    <path class="cls-1" d="M565.16,82.17l20.6-44.65c.48-1.03,1.17-1.72,2.41-1.72h.14c1.24,0,1.93.69,2.41,1.72l20.53,44.51c.21.41.28.76.28,1.1,0,.9-.76,1.65-1.72,1.65-.83,0-1.45-.62-1.79-1.38l-5.65-12.4h-28.46l-5.65,12.47c-.34.83-.9,1.31-1.72,1.31-.9,0-1.65-.69-1.65-1.52,0-.28.07-.69.28-1.1ZM600.85,67.77l-12.68-27.9-12.75,27.9h25.42Z"/>
    <path class="cls-1" d="M621.86,50.82c0-1.03.69-1.72,1.65-1.72s1.72.69,1.72,1.72v6.41c3.03-4.62,7.51-8.68,14.47-8.68,8.47,0,17.09,6.82,17.09,18.26v.14c0,11.44-8.61,18.4-17.09,18.4-7.03,0-11.58-4-14.47-8.41v17.16c0,1.03-.69,1.72-1.65,1.72s-1.72-.69-1.72-1.72v-43.27ZM653.15,67.08v-.14c0-9.23-6.41-15.16-13.78-15.16s-14.33,6.13-14.33,15.09v.14c0,9.03,7.03,15.09,14.33,15.09s13.78-5.58,13.78-15.02Z"/>
    <path class="cls-1" d="M667.34,50.82c0-1.03.69-1.72,1.65-1.72s1.72.69,1.72,1.72v6.41c3.03-4.62,7.51-8.68,14.47-8.68,8.48,0,17.09,6.82,17.09,18.26v.14c0,11.44-8.61,18.4-17.09,18.4-7.03,0-11.58-4-14.47-8.41v17.16c0,1.03-.69,1.72-1.65,1.72s-1.72-.69-1.72-1.72v-43.27ZM698.62,67.08v-.14c0-9.23-6.41-15.16-13.78-15.16s-14.33,6.13-14.33,15.09v.14c0,9.03,7.03,15.09,14.33,15.09s13.78-5.58,13.78-15.02Z"/>
    <path class="cls-1" d="M710.54,80.65c-.28-.21-.62-.76-.62-1.31,0-.9.76-1.65,1.65-1.65.41,0,.83.14,1.1.34,3.65,2.62,7.51,4,11.71,4,4.75,0,8.47-2.62,8.47-6.68v-.14c0-4.13-4.41-5.65-9.3-7.03-5.72-1.65-12.06-3.38-12.06-9.65v-.14c0-5.65,4.75-9.72,11.58-9.72,3.79,0,7.99,1.24,11.37,3.17.41.28.9.76.9,1.52,0,.9-.76,1.65-1.65,1.65-.41,0-.76-.14-.96-.28-3.03-1.79-6.41-2.89-9.78-2.89-4.82,0-7.99,2.62-7.99,6.13v.14c0,3.93,4.75,5.37,9.78,6.82,5.65,1.58,11.58,3.65,11.58,9.85v.14c0,6.27-5.37,10.27-12.13,10.27-4.75,0-10.06-1.86-13.64-4.55Z"/>
  </g>
  <path class="cls-1" d="M278.11,154.14l.56-.42c.66-.5,1.32-1.02,1.96-1.54l.24-.2c.56-.46,1.11-.94,1.66-1.42l.56-.5h0c.45-.41.9-.83,1.35-1.25h0s.49-.47.49-.47c.58-.56,1.15-1.13,1.71-1.72l.27-.29c.47-.49.93-.99,1.38-1.5l.51-.58c.39-.45.78-.9,1.15-1.35l.44-.53c.5-.61.99-1.23,1.46-1.86l.3-.4c.38-.51.75-1.02,1.12-1.54l.46-.67c.33-.47.64-.95.96-1.43l.39-.6c.42-.65.83-1.31,1.22-1.98h0s.31-.53.31-.53c.3-.51.59-1.03.88-1.55h0s.41-.76.41-.76c.26-.49.52-.98.77-1.46l.35-.68c.34-.68.67-1.37.99-2.06l.3-.67c.22-.5.45-1.01.67-1.52l.36-.86c.2-.49.39-.97.58-1.46l.3-.78c.26-.7.52-1.4.76-2.11l.27-.82c.16-.48.32-.97.47-1.45l.3-.97c.14-.48.28-.95.41-1.42l.25-.91c.19-.71.37-1.42.55-2.14l.23-.99c.1-.45.21-.9.3-1.36.08-.36.16-.73.23-1.09.09-.45.17-.89.26-1.34.06-.34.13-.68.19-1.04.13-.71.24-1.42.35-2.14.06-.39.11-.78.16-1.15.06-.41.11-.82.17-1.24.05-.41.1-.81.15-1.22h0c.05-.41.09-.81.13-1.22.05-.52.11-1.05.15-1.58.05-.57.1-1.15.14-1.73.03-.44.06-.87.08-1.3.02-.37.04-.74.06-1.11.02-.45.04-.89.05-1.34h0c.01-.36.02-.72.03-1.07h0c.02-.82.03-1.63.03-2.45v-.98c0-.48-.02-.96-.02-1.44l-.02-.97h0c-.01-.48-.03-.97-.05-1.46l-.05-.9c-.05-.99-.11-1.99-.19-2.98l-.04-.56c-.04-.52-.09-1.03-.14-1.55l-.08-.85h0c-.05-.52-.11-1.03-.17-1.55l-.09-.74h0c-.14-1.1-.29-2.19-.45-3.29h0s-.05-.35-.05-.35c-.08-.55-.17-1.09-.27-1.63l-.13-.74c-.1-.54-.19-1.08-.29-1.62l-.11-.57c-.22-1.16-.47-2.31-.73-3.46h0s-.05-.24-.05-.24h0c-.13-.56-.26-1.12-.4-1.67l-.16-.67h0c-.14-.55-.28-1.1-.42-1.65h0s-.12-.43-.12-.43h0c-.32-1.17-.65-2.34-1-3.5l-.06-.21h0c-4.44-14.64-11.64-28.39-21.17-39.62-4.43-5.22-8.95-8.9-13.41-11.29-4.46-2.39-8.87-3.46-13.03-3.46-6.96,0-13.17,3.01-17.81,7.66-4.64,4.65-7.77,10.94-8.66,17.65v.02s0,.01,0,.01c-.25,1.63-.38,3.19-.38,4.68,0,4.48,1.11,8.36,2.97,11.94,1.86,3.58,4.44,6.85,7.41,10.25,5.49,6.27,9.42,13.36,11.98,20.83,2.57,7.47,3.76,15.33,3.76,23.12,0,4.76-.45,9.5-1.3,14.11-.11.59-.22,1.17-.34,1.75-.2.94-.41,1.87-.64,2.79l-.02.1c-.11.43-.21.85-.33,1.27h0s-.04.14-.04.14h0c-.12.44-.24.88-.37,1.32h0c-.26.93-.55,1.84-.84,2.74h0s0,.01,0,.01c-.14.42-.28.84-.43,1.27l-.06.18h0c-.13.38-.26.75-.4,1.11h0s-.07.2-.07.2h0c-.15.4-.3.79-.45,1.18h0s-.03.08-.03.08c-.34.86-.69,1.71-1.06,2.54l-.05.11h0s-.28.62-.28.62l-.31-.14-.36-.17-.64-.32h0s-.38-.21-.38-.21h-.01s-.64-.35-.64-.35h0l-.35-.19-.76-.45-.23-.14-.97-.61h-.01s-.18-.13-.18-.13l-.04-.03-.74-.5-.3-.21-.03-.02-.62-.44-.34-.26h0l-.62-.47-.33-.25-.66-.52h0s-.28-.22-.28-.22c-.62-.51-1.23-1.04-1.83-1.58l-.03-.03-.2-.18-.02-.02-.66-.6-.28-.27-.03-.03-.59-.57h0s-.3-.3-.3-.3l-.62-.62-.27-.27h0s-.71-.75-.71-.75c-5.96-6.26-11.4-14.11-16.84-22.21-5.44-8.1-10.89-16.46-16.94-23.75l-.02-.02-.7-.83h0s-.19-.21-.19-.21h0s-.55-.65-.55-.65l-.19-.22v-.02s-.68-.76-.68-.76l-.02-.02-.04-.05-.75-.84-.13-.15h0s-.64-.7-.64-.7l-.13-.14-.04-.05-.69-.74h0s-.06-.05-.06-.05h0s-.81-.85-.81-.85v-.02s-.04-.02-.04-.02l-.76-.77h0s-.12-.12-.12-.12h0s-.71-.71-.71-.71l-.04-.04-.05-.05c-.56-.54-1.11-1.06-1.68-1.58h-.01s-.08-.08-.08-.08l-.77-.7-.02-.02-.06-.05c-.58-.51-1.16-1.01-1.74-1.49l-.05-.03-.85-.69-.04-.03c-.9-.72-1.82-1.41-2.77-2.07l-.05-.03-.02-.02c-.94-.65-1.89-1.27-2.86-1.86l-.04-.02c-2.29-1.38-4.7-2.57-7.23-3.51h-.03c-1.09-.42-2.19-.78-3.32-1.1h-.03s-.03-.02-.03-.02c-3.41-.95-7.04-1.46-10.89-1.46s-7.93.51-12.26,1.62c-7.58,1.94-13.93,5.51-19.42,10.4-8.25,7.34-14.62,17.59-20.77,29.82-6.1,12.14-11.98,26.24-19.18,41.48-1.87-1.78-3.74-3.43-5.61-4.96-2.18-1.82-4.43-3.52-6.93-5.16-13.66-9.15-26.97-12.26-38.49-12.25-9.47,0-17.73,2.08-24.07,4.59-3.17,1.25-5.86,2.61-7.98,3.87-1.06.63-1.99,1.24-2.76,1.8-.78.56-1.4,1.08-1.88,1.54-.4.38-.49.99-.22,1.48.27.48.83.72,1.37.59,5.1-1.3,9.75-1.88,14.01-1.88.58,0,1.15.02,1.72.04l.22.03c8.93.53,16.16,3.63,22.49,8.06,6.32,4.43,11.7,10.19,16.77,15.97l.05.05.48.48c.34.39,6.77,7.05,8.74,9.14h0c3.56,3.75,7.19,7.04,11.22,9.43,4.02,2.4,8.47,3.88,13.52,3.94h.38c1.44,0,2.91-.11,4.44-.34h.02c.42-.06.82-.14,1.19-.21h.03s.31-.06.31-.06c6.91-1.37,12.72-3.75,17.77-7.09,3.79-2.51,7.15-5.56,10.24-9.12,4.65-5.35,8.71-11.84,12.81-19.44,3.79-7.03,7.61-15.02,11.92-23.94l.16.32h0s0,0,0,0l.43.8h0c.34.63.68,1.26,1.03,1.87h0s.35.64.35.64h0c.45.82.92,1.62,1.39,2.42l.31.52h0c.39.67.79,1.33,1.19,1.98l.36.59h0c1,1.63,2.04,3.23,3.09,4.8h0s0,.02,0,.02l.27.4h0c.5.73,1,1.46,1.5,2.18v.02s.09.12.09.12l.03.05c.56.8,1.13,1.59,1.71,2.37l.03.05v.02c4.5,6.09,9.36,11.67,14.54,16.63,5.17,4.96,10.68,9.31,16.45,12.94h0c12.48,7.84,26.24,12.31,40.7,12.31,7.91,0,16.02-1.34,24.22-4.17.89-.31,1.77-.64,2.63-.96l.76-.3c.64-.25,1.27-.51,1.89-.78l.72-.31c.83-.36,1.65-.73,2.46-1.12h.02s.1-.06.1-.06c.77-.37,1.52-.75,2.26-1.14l.68-.37c.58-.31,1.15-.63,1.72-.95l.64-.37c.74-.43,1.48-.88,2.21-1.34h0l.17-.11c.67-.43,1.32-.86,1.96-1.3l.62-.43c.52-.37,1.03-.74,1.54-1.11ZM61.18,145.8l-.86-.7c-.4-.34-.81-.7-1.22-1.09l-.56-.55c-5.1-5.8-10.59-11.7-17.18-16.32-6.49-4.56-14.09-7.84-23.31-8.47l-.31-.06c-.72-.03-1.46-.05-2.2-.05-2.78,0-5.7.23-8.78.73,2.46-1.42,5.68-2.96,9.51-4.29,5.73-2,12.83-3.54,20.8-3.54,11.09,0,23.86,2.96,37.13,11.84h0c2.43,1.6,4.6,3.24,6.73,5.01h0c2.02,1.66,4.05,3.47,6.08,5.42-.63,1.41-2.18,4.6-4.52,7.72-1.52,2.03-3.37,4.02-5.46,5.48-2.1,1.46-4.42,2.38-6.97,2.38-1.58,0-3.28-.35-5.12-1.19-1.19-.55-2.45-1.32-3.76-2.33ZM149.87,102.34v.03c-.48.9-.87,1.68-1.18,2.32h0c-8.46,17.46-14.91,31.35-22.52,41.42-3.81,5.04-7.89,9.13-12.66,12.29-4.77,3.16-10.25,5.41-16.89,6.73l-.29.05c-.41.07-.78.15-1.11.19h-.02c-1.42.22-2.78.32-4.09.32h-.34c-4.59-.07-8.56-1.38-12.3-3.6-3.73-2.22-7.22-5.35-10.69-9.02-.61-.64-1.21-1.3-1.82-1.97,1.41.44,2.78.65,4.1.64,3.21,0,6.07-1.19,8.48-2.89,3.63-2.57,6.35-6.3,8.22-9.38,1.73-2.89,2.7-5.22,2.84-5.55l.54-1.15h0c9.74-20.58,17.04-39.02,25.52-53.16,4.24-7.07,8.77-13.05,14.02-17.71,5.25-4.66,11.21-8.02,18.41-9.86,4.16-1.06,8.03-1.55,11.66-1.55s7.06.49,10.27,1.38h.03s.01.01.01.01c1.05.29,2.08.64,3.1,1.01h.02c2.39.9,4.68,2.03,6.87,3.35h.02c.93.57,1.85,1.16,2.75,1.8l.05.03h0c.89.63,1.77,1.28,2.63,1.97l.04.03.84.68.02.02c.57.47,1.13.95,1.69,1.44l.02.02.05.04.75.68.02.02.07.06c.54.49,1.07,1,1.61,1.51l.03.03.05.05.71.71.05.05.03.03.05.06.74.75h0s.01.02.01.02l.79.82.05.06h0s.69.75.69.75l.12.14.03.03.62.68.09.1.04.05.44.48-.26-.06h0s-.48-.1-.48-.1h-.01s-.98-.16-.98-.16h-.05s-.33-.05-.33-.05h0c-.45-.06-.9-.11-1.35-.14l-.31-.02h-.04s-.99-.04-.99-.04h-.51s-.84,0-.84,0l-.52.02-.83.06h0l-.46.04h-.03s-1,.13-1,.13h-.02s-.26.03-.26.03h-.02c-.4.07-.8.14-1.21.22h-.02s-.01,0-.01,0l-.46.1-.79.18h0s-.49.13-.49.13h0s-.73.21-.73.21h-.03s-.49.16-.49.16l-.76.25h-.01s-.45.16-.45.16h0s-.01,0-.01,0c-.37.14-.76.28-1.13.44h0s-.34.15-.34.15h.01s-.83.36-.83.36h-.01s-.47.23-.47.23l-.69.34-.49.26-.64.35h0s-.48.27-.48.27h0s-.71.42-.71.42h-.01s-.38.24-.38.24h0s-1.03.66-1.03.66h-.02s-.41.29-.41.29l-.62.43-.48.34-.56.41h0s-.02.02-.02.02l-.46.35h0s-.57.45-.57.45h0s-.46.37-.46.37l-.65.54h0s-.62.54-.62.54l-.61.54h0s0,.01,0,.01l-.44.4h-.01s0,.02,0,.02l-.48.45-.45.43h0s0,.01,0,.01l-.46.45h-.01s-.43.44-.43.44l-.02.02-.45.45v.02s-.43.43-.43.43h0s0,.01,0,.01l-.78.83-.44.48h-.01s-.42.48-.42.48l-.44.49-.38.44h0s-.43.5-.43.5h0s-.37.46-.37.46l-.43.51h0s-.34.43-.34.43h0s0,.01,0,.01c-4.85,5.98-8.42,12.13-10.49,16.07ZM194.58,157.38h0s0,0,0,0ZM202.18,156.95h0l-.1-.02c-.98-.18-1.96-.41-2.95-.67l-.1-.02h0s-.39-.11-.39-.11h0c-.36-.1-.72-.21-1.08-.32l-.52-.16c-.36-.12-.72-.24-1.09-.37h0l-.38-.13h.01s-.14-.05-.14-.05h0c-.48-.17-.95-.36-1.41-.54-5.59-3.52-10.94-7.74-15.98-12.58-5.07-4.85-9.83-10.33-14.24-16.31l-.02-.03-.02-.02c-.57-.77-1.13-1.56-1.7-2.35l-.12-.17c-.5-.71-.99-1.43-1.48-2.15h0s-.25-.38-.25-.38v-.02c-1.06-1.55-2.07-3.13-3.07-4.74h0s-.35-.56-.35-.56h0c-.4-.66-.79-1.31-1.17-1.96h0s-.3-.51-.3-.51v-.02c-.47-.78-.93-1.57-1.38-2.37l-.35-.64h0c-.34-.6-.68-1.22-1.01-1.84h0s-.43-.79-.43-.79h0c-.33-.64-.67-1.28-1-1.92.25-.51.54-1.08.88-1.72v-.03c2.02-3.84,5.53-9.86,10.23-15.65h0s.33-.42.33-.42l.41-.49h0s.35-.44.35-.44l.42-.49h0s.38-.43.38-.43h0s.42-.48.42-.48l.41-.45.41-.45h0s.77-.82.77-.82h.01s.41-.43.41-.43l.44-.45.43-.42.45-.43h0s.44-.43.44-.43h0s.46-.42.46-.42l.02-.02.42-.38h.01s.58-.52.58-.52l.59-.51.62-.52h0s.43-.34.43-.34l.52-.41.03-.02.42-.32.02-.02.52-.39.44-.32h0s.6-.42.6-.42h0s.41-.28.41-.28l.97-.62.37-.22.66-.39.45-.25.61-.33h0s.46-.24.46-.24h0s.62-.3.62-.3h.02s.43-.22.43-.22l.77-.34h0s.3-.14.3-.14c.34-.14.69-.28,1.05-.41h.02s.4-.15.4-.15l.71-.24h0s.45-.15.45-.15l.68-.19.47-.13.73-.17h.03s.36-.09.36-.09h.03c.36-.08.74-.15,1.12-.21l.25-.03.92-.11.44-.04.76-.05h0l.46-.02h.77s.44,0,.44,0h.02l.91.04.29.02h.01c.4.03.8.07,1.21.12l.35.05.91.14.47.09h0s.82.18.82.18l.48.11.87.24h0l.4.12h.02s.98.33.98.33c5.85,7.08,11.2,15.27,16.58,23.29,5.45,8.12,10.95,16.07,17.1,22.54h0s.72.75.72.75h.01s.29.31.29.31l.62.62.33.32.62.59.3.3.02.02.67.62.26.23c.63.57,1.27,1.13,1.92,1.66l.03.02.25.2h0s.68.56.68.56h.02s.31.25.31.25l.03.03.64.49h0s.35.25.35.25l.02.02.65.46.36.25h0s.8.54.8.54l.21.14h0s0,.01,0,.01l1.03.65.03.02.2.12.03.02.78.46h0s.38.21.38.21h0s.68.37.68.37h0s0,0,0,0l.39.2.69.35.03.02.36.17h.03s.3.15.3.15l-.38.76-.06.13c-.41.8-.83,1.57-1.26,2.34l-.1.18h0l-.54.93-.15.26h0s-.52.86-.52.86h0l-.15.25-.6.93h0s-.09.14-.09.14c-.47.72-.95,1.42-1.45,2.11l-.15.21-.59.8h0s-.2.27-.2.27l-.57.74-.19.25-.66.82h0l-.1.13h0s-.22.27-.22.27l-.7.83-.4.44-.6.66-.42.45-.63.65-.34.35-.08.08-.89.87h0s-.1.1-.1.1l-.18.16h0l-.85.77-.41.35-.68.58-.44.36h0l-.72.57-.35.28-.08.06-1.01.75h0s-.08.06-.08.06l-.15.11-.98.67-.42.27-.77.48h0l-.45.27-.79.46-.37.21h0l-.08.04c-.37.21-.75.4-1.12.59h-.01s-.06.04-.06.04l-.13.06h0c-.36.18-.73.35-1.1.52l-.43.19-.84.36h0l-.47.19-.86.33-.38.14h0l-.07.03c-.41.14-.81.28-1.22.41h-.01s-.03.01-.03.01l-.08.02h-.02c-.4.13-.8.24-1.21.35l-.44.11-.91.22-.48.11-.94.18-.38.07h0l-.08.02h0c-.44.07-.88.14-1.32.2h-.05s-.02,0-.02,0c-.44.06-.88.1-1.32.14h-.02l-.43.03-.98.06-.49.02-1,.02h-.46c-.94,0-1.89-.06-2.85-.14h-.05s0,0,0,0l-.41-.04-1.04-.12-.5-.07c-.35-.05-.7-.11-1.06-.17l-.37-.06ZM275.16,153.26l-.6.42c-.62.43-1.26.85-1.89,1.26l-.17.11c-.69.44-1.41.87-2.13,1.3l-.62.35c-.55.31-1.1.62-1.66.92l-.67.36c-.73.38-1.46.75-2.2,1.11h-.02s-.09.05-.09.05c-.77.37-1.57.73-2.37,1.08l-.7.3c-.61.26-1.22.51-1.84.76l-.73.29c-.84.32-1.69.64-2.55.93-7.96,2.75-15.79,4.04-23.43,4.04-10.53,0-20.69-2.45-30.27-6.93h.03s0,0,0,0l.53.08h0c.37.05.74.09,1.11.13l.43.04h0,.05s0,0,0,0c1.02.09,2.04.14,3.04.15h.49c.36,0,.71,0,1.07-.02l.52-.02h0c.35-.02.7-.04,1.05-.06l.46-.03h.02s.01,0,.01,0c.46-.04.92-.09,1.38-.15h.06s0,0,0,0h.02s.01,0,.01,0c.48-.06.95-.14,1.42-.22h.09s0-.01,0-.01l.41-.08,1-.19.51-.11h0l.98-.24.46-.12h0c.43-.12.86-.24,1.28-.37h0s.09-.03.09-.03h.03s.05-.02.05-.02c.44-.14.87-.28,1.29-.43h0s.08-.03.08-.03h0s.4-.14.4-.14l.92-.35h0l.5-.21.89-.38h0l.45-.2c.39-.18.78-.37,1.17-.56h0s.13-.06.13-.06h.01s.07-.04.07-.04c.4-.2.79-.41,1.18-.62l.08-.05h0l.39-.22h0s.84-.49.84-.49h0s.48-.29.48-.29l.81-.51.44-.29h0l1.03-.7.16-.11h0s.09-.07.09-.07h0c.36-.25.72-.51,1.07-.78h0l.08-.06h0l.37-.29.75-.6h0s.46-.38.46-.38l.72-.61h0l.43-.37.89-.81h0s.19-.18.19-.18h0s.11-.11.11-.11h0s.94-.91.94-.91h0s.08-.08.08-.08l.36-.37h0l.66-.68.44-.47.62-.68h0l.41-.46h0s.73-.86.73-.86l.23-.27.12-.14h0s.69-.86.69-.86l.2-.25h0s.6-.78.6-.78l.21-.27.61-.83h0s.16-.21.16-.21c.51-.72,1.02-1.45,1.5-2.2h0s.09-.14.09-.14l.62-.97h0s.16-.26.16-.26l.54-.89h0s.16-.27.16-.27h0s.56-.97.56-.97h0l.1-.18c.45-.8.89-1.61,1.31-2.43h0s.06-.13.06-.13h0c.18-.36.36-.72.54-1.08l.12-.25.48-1.01.12-.25c.17-.37.34-.75.51-1.13h0s.05-.11.05-.11h0c.38-.87.75-1.75,1.1-2.64h0s.03-.09.03-.09h0c.16-.4.31-.81.47-1.21l.08-.21c.14-.38.28-.76.41-1.15h0s.07-.19.07-.19c.15-.43.3-.87.45-1.31h0s0,0,0,0h0c.31-.94.6-1.88.87-2.83v-.03c.14-.45.26-.9.38-1.35h0s.04-.14.04-.14h0c.12-.43.23-.87.34-1.3l.02-.1h0c.24-.96.45-1.92.66-2.89.13-.61.24-1.21.35-1.79h0c.88-4.77,1.34-9.65,1.34-14.57,0-8.04-1.23-16.16-3.89-23.91-2.66-7.75-6.75-15.12-12.46-21.65-2.92-3.34-5.37-6.47-7.08-9.77-1.71-3.3-2.69-6.73-2.7-10.81,0-1.37.11-2.81.35-4.33v-.03c.82-6.18,3.72-12.01,7.97-16.27,2.13-2.13,4.59-3.87,7.3-5.07,2.71-1.2,5.66-1.88,8.78-1.88,3.74,0,7.73.96,11.87,3.17,4.14,2.21,8.43,5.69,12.7,10.72,9.29,10.94,16.35,24.41,20.7,38.75h0s.06.2.06.2c.34,1.14.67,2.28.98,3.43h0s.11.42.11.42h0c.14.54.28,1.07.41,1.62h0s.16.66.16.66c.13.54.26,1.08.38,1.62l.05.24h0c.25,1.13.49,2.26.71,3.39l.11.56h0c.1.53.2,1.06.29,1.59l.13.73h0c.09.53.18,1.07.26,1.59h0s.05.34.05.34h0c.16,1.07.31,2.15.44,3.22l.09.72c.06.5.11,1.01.16,1.52h0s.08.83.08.83c.05.51.1,1.01.14,1.51h0s.04.55.04.55c.08.97.14,1.95.19,2.92l.05.88c.02.47.03.95.05,1.42l.02.96c.01.47.02.94.02,1.4v.25s0,.71,0,.71c0,.8-.01,1.6-.03,2.39,0,.36-.02.71-.03,1.05-.02.44-.03.87-.05,1.31-.02.36-.04.72-.06,1.08-.03.43-.05.86-.08,1.27-.04.56-.08,1.13-.13,1.69-.05.51-.1,1.02-.15,1.54-.04.4-.08.8-.13,1.18-.05.4-.1.8-.14,1.19h0c-.05.4-.11.8-.16,1.21-.05.38-.11.76-.16,1.12h0c-.11.7-.22,1.39-.34,2.08l-.19,1.02c-.08.44-.16.87-.25,1.3-.07.36-.15.71-.22,1.07h0c-.1.44-.19.88-.3,1.32l-.22.96c-.17.7-.35,1.39-.54,2.08l-.25.87c-.13.46-.26.92-.4,1.38l-.29.95c-.15.47-.3.94-.46,1.41l-.27.8c-.24.69-.48,1.37-.74,2.05h0s-.29.76-.29.76c-.19.48-.37.95-.57,1.42l-.35.83c-.21.49-.42.98-.64,1.47l-.29.65c-.31.67-.63,1.34-.95,2l-.34.66c-.24.48-.49.95-.74,1.42l-.4.73c-.28.5-.56,1-.85,1.5l-.3.51h0c-.38.64-.78,1.28-1.18,1.91l-.38.58c-.3.46-.61.92-.92,1.38h0s-.44.64-.44.64c-.35.5-.72,1-1.08,1.49l-.29.39c-.46.6-.93,1.2-1.41,1.8l-.43.51c-.37.44-.73.87-1.11,1.3l-.49.56c-.44.49-.88.97-1.33,1.45h0s-.26.29-.26.29c-.54.56-1.09,1.11-1.65,1.65l-.48.45c-.43.41-.86.81-1.3,1.2l-.55.49c-.52.46-1.06.92-1.6,1.37l-.22.19h0c-.61.51-1.24,1-1.89,1.49l-.54.4c-.49.36-.98.72-1.48,1.07Z"/>
  <g>
    <path class="cls-2" d="M628.66,140.39c-.77,0-1.06.65-1.06,1.37,0,.68.37,1.33,1.1,1.33.77,0,1.06-.68,1.06-1.35,0-.72-.33-1.35-1.1-1.35Z"/>
    <path class="cls-2" d="M610.81,140.39c-.77,0-1.06.65-1.06,1.37,0,.68.37,1.33,1.1,1.33.77,0,1.06-.68,1.06-1.35,0-.72-.33-1.35-1.1-1.35Z"/>
    <path class="cls-1" d="M728.78,150.04h-156.38c-4.15,0-7.52-3.5-7.52-7.81v-31.23c0-4.31,3.37-7.81,7.52-7.81h156.38c4.15,0,7.52,3.5,7.52,7.81v31.24c0,4.29-3.37,7.8-7.52,7.8M572.41,103.7c-3.88,0-7.04,3.27-7.04,7.3v31.24c0,4.03,3.16,7.3,7.04,7.3h156.38c3.88,0,7.04-3.27,7.04-7.3v-31.24c0-4.03-3.16-7.3-7.04-7.3h-156.38Z"/>
    <g>
      <path class="cls-2" d="M597.79,125.85c-.37.86-.07,1.88.69,2.37l-.45-2.94-.24.56Z"/>
      <path class="cls-2" d="M649.94,116.51h-13.37s-.04,0-.05,0l1.73,13.29c.16,1.19-.15,2.37-.84,3.34-.31.41-.67.75-1.07,1.03.08.01.15.02.23.02h13.37c1.01,0,1.83-.85,1.83-1.89v-13.87c0-1.04-.82-1.9-1.83-1.9Z"/>
      <path class="cls-2" d="M572.41,103.7c-3.88,0-7.04,3.27-7.04,7.3v31.24c0,4.03,3.16,7.3,7.04,7.3h95.25v-45.85h-95.25ZM603.95,140.05l-.02.09-1.84,2.9h1.66c.09,0,.15.08.15.15v.4c0,.09-.07.15-.15.15h-2.72c-.09,0-.15-.07-.15-.15v-.15l.02-.09,1.9-2.9h-1.55c-.09,0-.15-.08-.15-.15v-.4c0-.09.07-.15.15-.15h2.56c.09,0,.15.07.15.15v.15ZM610.85,143.78c-1.21.02-1.99-.83-1.99-2.07s.84-2.05,1.99-2.05,1.99.83,1.99,2.05-.82,2.07-1.99,2.07ZM621.43,143.56c0,.09-.07.15-.15.15h-.57c-.09,0-.15-.08-.15-.15v-1.5h-1.61v1.5c0,.09-.07.15-.15.15h-.57c-.09,0-.15-.08-.15-.15v-3.68c-.02-.07.05-.15.15-.15h.57c.09,0,.15.08.15.15v1.48h1.61v-1.48c0-.09.07-.15.15-.15h.57c.09,0,.15.08.15.15v3.68ZM628.7,143.78c-1.22.02-1.99-.83-1.99-2.07s.84-2.05,1.99-2.05,1.99.83,1.99,2.05-.82,2.07-1.99,2.07ZM615.62,134.1c-.71,1.67-2.3,2.67-3.96,2.67-.58,0-1.19-.13-1.75-.4l-9.15-4.24c-.61,1.21-1.75,2.12-3.14,2.36l-13.19,2.22c-.22.04-.46.06-.69.06-.9,0-1.77-.3-2.52-.85-.93-.7-1.55-1.73-1.74-2.92l-2.14-13.68c-.18-1.19.09-2.39.77-3.35.68-.97,1.66-1.61,2.81-1.8l13.19-2.22c2.36-.4,4.58,1.27,4.97,3.72l.09.61-1.86,4.34-.71-4.53c-.15-.93-.93-1.59-1.81-1.59-.09,0-.2,0-.29.02l-13.19,2.22c-.48.08-.9.34-1.19.76-.29.42-.4.93-.33,1.42l2.14,13.69c.07.49.33.93.73,1.23s.89.42,1.37.34l13.19-2.22c.54-.09.99-.42,1.26-.86l-.77-.35c-2.17-1-3.16-3.68-2.19-5.93l5.44-12.66c.97-2.26,3.54-3.28,5.72-2.28l10.18,4.71c.45-.25.95-.42,1.48-.5l13.24-1.87c1.15-.17,2.3.15,3.22.87.35.27.64.59.88.93-.88.19-1.64.64-2.23,1.29l-.16-.15c-.31-.25-.69-.38-1.1-.38-.09,0-.16,0-.26.02l-11.75,1.66c1.23,1.28,1.65,3.27.9,5.01l-2.78,6.46.6,4.65c.07.49.33.95.71,1.25.38.32.88.45,1.35.38l11.3-1.6c0-.1-.01-.2-.01-.29v-13.87c0-2.48,1.94-4.49,4.33-4.49h13.37c2.39,0,4.33,2.01,4.33,4.49v13.87c0,2.46-1.94,4.49-4.33,4.49h-13.37c-1.38,0-2.61-.67-3.41-1.72l-11.86,1.68c-.18.02-.38.04-.58.04-.93,0-1.85-.3-2.61-.91-.91-.74-1.5-1.78-1.66-2.97l-.07-.51"/>
      <path class="cls-2" d="M617.85,117.87l-.54-.25c-.19.35-.27.76-.21,1.16l.55,4.19-1.94,4.51-1.1-8.36c-.12-.89.02-1.78.39-2.57l-9.36-4.33c-.91-.42-2.01,0-2.41.97l-3.34,7.77,1.29,8.38c0,.06.02.11.02.17l9.71,4.5c.91.42,2.01,0,2.41-.97l5.44-12.66c.4-.95,0-2.09-.93-2.5Z"/>
      <path class="cls-2" d="M634.74,132.12c.26-.13.48-.32.66-.56.31-.4.44-.91.37-1.4l-1.02-7.85"/>
    </g>
    <polygon class="cls-1" points="687.55 110.77 687.55 111.73 682.85 118.81 687.39 118.81 687.39 120.62 679.73 120.62 679.73 119.71 684.55 112.58 680.23 112.58 680.23 110.86 680.31 110.77 687.55 110.77"/>
    <path class="cls-1" d="M699.04,110.17v4.32l.58-.65c1.33-.95,3.46-.82,4.1.87.04.12.19.59.19.68v5.22h-2.02v-4.68c0-.21-.29-.66-.47-.78-.79-.54-2.07-.17-2.29.81-.02.08-.08.46-.08.52v4.13h-2.02v-10.44h2.02Z"/>
    <path class="cls-1" d="M716.2,126.63v.66s.38-.41.38-.41c.85-.7,2.45-.38,2.93.63.73-1.31,2.9-1.36,3.6,0,.05.1.25.6.25.68v4.07h-.93v-3.96s-.16-.41-.19-.46c-.41-.64-1.53-.65-2.05-.14-.22.22-.44.79-.44,1.09v3.47h-.93v-3.96s-.14-.38-.17-.43c-.39-.65-1.51-.69-2.04-.2-.12.11-.41.6-.41.74v3.85h-.98v-5.63h.98Z"/>
    <path class="cls-1" d="M697.23,126.63v.71s.33-.41.33-.41c.94-.76,2.45-.45,3.06.58.5-1.15,2.39-1.31,3.23-.46.23.23.6.94.6,1.26v3.96h-.93v-3.85c0-.06-.16-.48-.21-.56-.4-.68-1.63-.66-2.12-.07-.11.13-.35.65-.35.79v3.69h-.93v-3.85c0-.06-.16-.48-.21-.56-.4-.68-1.63-.66-2.12-.07-.11.13-.35.65-.35.79v3.69h-.93v-5.63h.93Z"/>
    <path class="cls-1" d="M704.94,142.98h-.93v-3.58c0-.19-.16-.71-.27-.88-.52-.75-1.93-.58-2.43.14-.06.09-.25.48-.25.57v3.75h-.93v-5.69h.93v.77c.77-1.09,2.69-1.15,3.47-.05.16.22.41.91.41,1.17v3.8Z"/>
    <path class="cls-1" d="M709.7,126.63v3.85c0,.07.17.45.23.54.43.65,1.62.66,2.18.17.21-.18.49-.66.49-.93v-3.64h.93v5.63h-.93v-.77c-.83,1.26-3.1,1.15-3.67-.29-.02-.06-.15-.48-.15-.5v-4.07h.93Z"/>
    <path class="cls-1" d="M697.5,135.87v1.42h1.23c.17.21.05.56.08.82h-1.31v3.69s.13.24.17.27c.25.23.9.16,1.2.03v.82c-.82.26-2.01.17-2.27-.82-.01-.05-.08-.39-.08-.41v-3.58h-.77v-.82h.77v-1.04l.98-.38Z"/>
    <path class="cls-1" d="M695.1,137.24v.87c-.56,0-1.21.12-1.54.62-.08.12-.26.54-.26.67v3.58h-.98v-5.6l.08-.08h.82l.08.08v.79l.49-.52c.36-.31.84-.45,1.31-.41Z"/>
    <path class="cls-1" d="M715.38,137.24v.87c-.56,0-1.21.12-1.54.62-.08.12-.26.54-.26.67v3.58h-.98v-5.6l.08-.08h.82l.08.08v.79l.49-.52c.36-.31.84-.45,1.31-.41Z"/>
    <path class="cls-1" d="M689.41,126.52v.87c-.63,0-1.35.16-1.66.77-.05.1-.2.54-.2.62v3.47h-.93v-5.63h.93v.87l.41-.49c.39-.35.92-.52,1.45-.49Z"/>
    <rect class="cls-1" x="706.14" y="126.63" width=".93" height="5.63"/>
    <path class="cls-1" d="M706.51,124.4c.84-.09.92,1.22.09,1.25s-.84-1.17-.09-1.25Z"/>
    <path class="cls-1" d="M691.81,113.25c-5.09.23-4.81,7.95.53,7.53,4.78-.38,4.51-7.76-.53-7.53ZM691.59,119.18c-1.8-.26-1.84-4.09.05-4.35,1.21-.16,1.92.62,2.03,1.77.14,1.47-.36,2.83-2.08,2.58Z"/>
    <path class="cls-1" d="M712.56,115.82c-.47-1.7-2.02-2.62-3.74-2.57-5.07.16-4.91,7.93.48,7.53,2.58-.19,3.94-2.55,3.27-4.96ZM708.54,119.18c-1.75-.27-1.86-4.1.11-4.35,1.14-.14,1.83.57,1.97,1.66.19,1.48-.32,2.96-2.09,2.69Z"/>
    <path class="cls-1" d="M684.03,135.49c-.16-.06-.62-.22-.77-.22h-2.98v7.71h.98v-3.12c1.43.04,3.91.09,4.1-1.83.11-1.14-.21-2.11-1.34-2.54ZM684.06,138.64c-.13.14-.63.41-.8.41h-2v-2.95h2.05c.25,0,.76.36.89.58.3.49.25,1.53-.15,1.96Z"/>
    <path class="cls-1" d="M684.59,125.08c-.31-.24-1.06-.52-1.44-.52h-2.87v7.71h.98v-3.12h1.67c.49,0,1.45-.31,1.83-.63.94-.8.8-2.69-.16-3.44ZM683.71,128.17c-.19.1-.68.21-.88.21h-1.56v-3.01h2c.07,0,.51.17.59.23.8.5.73,2.14-.15,2.57Z"/>
    <path class="cls-1" d="M695.04,129.64c.03-1.51-.57-3.01-2.27-3.12-4.16-.28-3.79,6.69.47,5.77.72-.15,1.46-.71,1.69-1.4l-.84-.33c-.93,1.74-3.38,1.06-3.26-.93h4.21ZM694.06,128.87h-3.23c.25-2.03,3.16-2.17,3.23,0Z"/>
    <path class="cls-1" d="M711.34,140.36v-.79c0-.17-.17-.72-.25-.9-.88-2.21-4.13-1.81-4.78.47-.62,2.18.79,4.34,3.18,3.89.75-.14,1.43-.68,1.77-1.35l-.87-.39c-.9,1.75-3.32,1.02-3.26-.93h4.21ZM710.41,139.59h-3.23c.2-2.05,3.12-2.17,3.23,0Z"/>
    <path class="cls-1" d="M690.5,138.37c-.75-1.72-3.66-1.43-4.26.29l.79.33c.38-.77,1.14-1.19,1.99-.89.65.23.73.95.72,1.55h-1.39c-.87,0-2.09.55-2.21,1.51-.22,1.84,1.92,2.37,3.22,1.52l.39-.35v.66h.93v-4.13c0-.05-.14-.4-.17-.48ZM689.74,141.2c0,.08-.25.52-.33.6-.46.49-1.85.8-2.23.1-.23-.43-.13-.96.26-1.24.24-.17.88-.36,1.17-.36h1.12v.9Z"/>
  </g>
</svg>